<?xml version="1.0" encoding="UTF-8" standalone="no"?>
<svg width="88px" height="20px" viewBox="0 0 88 20" version="1.1" xmlns="http://www.w3.org/2000/svg" xmlns:xlink="http://www.w3.org/1999/xlink">
    <!-- Generator: Sketch 3.8.2 (29753) - http://www.bohemiancoding.com/sketch -->
    <title>flow.io logo concept</title>
    <desc>Created with Sketch.</desc>
    <defs></defs>
    <g id="Console.Nav-Desktop" stroke="none" stroke-width="1" fill="none" fill-rule="evenodd">
        <g id="Define-Experiences" transform="translate(-24.000000, -18.000000)" fill="#FFFFFF">
            <g id="Top-Nav">
                <g id="flow.io-logo-concept" transform="translate(24.000000, 18.000000)">
                    <polygon id="notch" points="0.5 9 7 9 7 11.48 0 11.48"></polygon>
                    <path d="M12.9844782,11.4682617 L6.05088441,11.4682617 L4.74473206,19 L1.72959535,19 L4.80576722,1.2265625 L15.7920953,1.2265625 L15.3526422,3.71679688 L7.39365785,3.71679688 L6.4781305,9.00244141 L13.4239313,9.00244141 L12.9844782,11.4682617 Z M17.9649469,19 L15.0718805,19 L18.3311578,0.25 L21.2242243,0.25 L17.9649469,19 Z M36.739361,10.5649414 C36.5847378,11.6879939 36.2897375,12.7744088 35.8543512,13.8242188 C35.4189649,14.8740287 34.8472747,15.8058228 34.1392633,16.6196289 C33.431252,17.4334351 32.5889752,18.0804012 31.6124078,18.5605469 C30.6358405,19.0406925 29.5290807,19.2685548 28.2920953,19.2441406 C27.4945653,19.2278645 26.7845301,19.099692 26.1619684,18.8596191 C25.5394067,18.6195463 24.9961992,18.2960632 24.5323297,17.8891602 C24.0684602,17.4822571 23.6839426,17.0041531 23.3787653,16.454834 C23.073588,15.9055148 22.8375877,15.3134797 22.6707575,14.6787109 C22.5039272,14.0439421 22.402203,13.3807001 22.3655817,12.6889648 C22.3289604,11.9972296 22.3513397,11.3055048 22.4327203,10.6137695 L22.5547907,9.69824219 C22.6524474,8.95767859 22.8152062,8.22322955 23.0430719,7.49487305 C23.2709376,6.76651654 23.561869,6.07682617 23.9158746,5.42578125 C24.2698803,4.77473633 24.6828807,4.17456329 25.1548883,3.62524414 C25.6268959,3.07592499 26.1599309,2.60189001 26.7540094,2.203125 C27.3480879,1.80435999 28.0011575,1.49715277 28.7132379,1.28149414 C29.4253183,1.06583551 30.1923191,0.966145752 31.0142633,0.982421875 C31.8199314,0.998697998 32.5340356,1.12890503 33.1565973,1.37304688 C33.779159,1.61718872 34.320332,1.94474078 34.7801325,2.35571289 C35.2399329,2.766685 35.6244506,3.24885791 35.9336969,3.80224609 C36.2429432,4.35563428 36.4789435,4.95173834 36.6417047,5.59057617 C36.804466,6.229414 36.9021212,6.89672504 36.9346735,7.5925293 C36.9672257,8.28833356 36.9428119,8.9820929 36.8614313,9.67382813 L36.739361,10.5649414 Z M33.8462946,9.63720703 C33.8951229,9.23030396 33.9317437,8.79899316 33.9561578,8.34326172 C33.980572,7.88753027 33.9703996,7.43790912 33.9256403,6.99438477 C33.8808809,6.55086041 33.797467,6.12361859 33.6753961,5.71264648 C33.5533252,5.30167438 33.3722561,4.93750159 33.1321832,4.62011719 C32.8921104,4.30273279 32.5869377,4.0463877 32.2166559,3.85107422 C31.8463741,3.65576074 31.392684,3.54996753 30.8555719,3.53369141 C30.2940457,3.51741528 29.78339,3.59065674 29.3235895,3.75341797 C28.863789,3.9161792 28.4487541,4.1440415 28.0784723,4.43701172 C27.7081905,4.72998193 27.3826729,5.07787885 27.1019098,5.48071289 C26.8211467,5.88354694 26.5770085,6.31485773 26.3694879,6.7746582 C26.1619674,7.23445868 25.9910706,7.71052814 25.8567926,8.20288086 C25.7225146,8.69523358 25.6228248,9.17740649 25.5577203,9.64941406 L25.43565,10.5893555 C25.3868217,10.9881205 25.3522354,11.4153623 25.3318903,11.8710938 C25.3115451,12.3268252 25.323752,12.7784808 25.3685114,13.2260742 C25.4132707,13.6736676 25.4987191,14.1029439 25.624859,14.513916 C25.750999,14.9248881 25.9341026,15.2910954 26.1741754,15.6125488 C26.4142482,15.9340023 26.719421,16.1944163 27.0897028,16.3937988 C27.4599846,16.5931813 27.9096057,16.701009 28.4385797,16.7172852 C29.008244,16.7335613 29.5229687,16.6603198 29.9827692,16.4975586 C30.4425696,16.3347974 30.8576046,16.1069351 31.2278864,15.8139648 C31.5981682,15.5209946 31.9236857,15.1710632 32.2044489,14.7641602 C32.485212,14.3572571 32.7252812,13.9239118 32.9246637,13.4641113 C33.1240462,13.0043109 33.2888395,12.5282414 33.4190485,12.0358887 C33.5492575,11.5435359 33.6469127,11.0572941 33.7120172,10.5771484 L33.8462946,9.63720703 Z M52.6573297,14.5810547 L57.3936578,1.2265625 L60.4576227,1.2265625 L53.6949274,19 L50.814068,19 L49.5811578,6.06054688 L44.2100641,19 L41.3047907,19 L40.1085016,1.2265625 L43.0259821,1.2265625 L43.6119196,14.5200195 L48.9708063,1.2265625 L51.4976618,1.2265625 L52.6573297,14.5810547 Z" id="FlOW.IO"></path>
                    <path d="M58.1749078,17.5717773 C58.1749078,17.3276355 58.2155975,17.1018077 58.2969782,16.8942871 C58.3783588,16.6867665 58.4943244,16.5077319 58.6448785,16.3571777 C58.7954327,16.2066236 58.9724329,16.0886235 59.1758844,16.0031738 C59.3793359,15.9177242 59.6031293,15.870931 59.8472711,15.862793 C60.0832749,15.8546549 60.3050338,15.8892411 60.5125543,15.9665527 C60.7200749,16.0438643 60.8991096,16.1537265 61.0496637,16.2961426 C61.2002178,16.4385587 61.318218,16.6094554 61.4036676,16.8088379 C61.4891173,17.0082204 61.5318414,17.2299792 61.5318414,17.4741211 C61.5318414,17.7182629 61.4891173,17.9420563 61.4036676,18.1455078 C61.318218,18.3489594 61.2002178,18.523925 61.0496637,18.6704102 C60.8991096,18.8168953 60.7221094,18.9308264 60.5186578,19.012207 C60.3152063,19.0935876 60.0954819,19.1383463 59.8594782,19.1464844 C59.6234744,19.1546224 59.40375,19.1220707 59.2002985,19.0488281 C58.9968469,18.9755856 58.8198467,18.8697924 58.6692926,18.7314453 C58.5187385,18.5930983 58.3987039,18.4262705 58.3091852,18.230957 C58.2196665,18.0356436 58.1749078,17.8159192 58.1749078,17.5717773 L58.1749078,17.5717773 Z M68.1358453,19 L65.1329157,19 L68.2212946,1.2265625 L71.2242243,1.2265625 L68.1358453,19 Z M87.1910211,10.5649414 C87.036398,11.6879939 86.7413977,12.7744088 86.3060114,13.8242188 C85.8706251,14.8740287 85.2989348,15.8058228 84.5909235,16.6196289 C83.8829121,17.4334351 83.0406354,18.0804012 82.064068,18.5605469 C81.0875006,19.0406925 79.9807409,19.2685548 78.7437555,19.2441406 C77.9462255,19.2278645 77.2361903,19.099692 76.6136285,18.8596191 C75.9910668,18.6195463 75.4478594,18.2960632 74.9839899,17.8891602 C74.5201204,17.4822571 74.1356027,17.0041531 73.8304254,16.454834 C73.5252481,15.9055148 73.2892479,15.3134797 73.1224176,14.6787109 C72.9555873,14.0439421 72.8538631,13.3807001 72.8172418,12.6889648 C72.7806206,11.9972296 72.8029999,11.3055048 72.8843805,10.6137695 L73.0064508,9.69824219 C73.1041076,8.95767859 73.2668663,8.22322955 73.4947321,7.49487305 C73.7225978,6.76651654 74.0135291,6.07682617 74.3675348,5.42578125 C74.7215405,4.77473633 75.1345409,4.17456329 75.6065485,3.62524414 C76.078556,3.07592499 76.6115911,2.60189001 77.2056696,2.203125 C77.7997481,1.80435999 78.4528177,1.49715277 79.1648981,1.28149414 C79.8769785,1.06583551 80.6439793,0.966145752 81.4659235,0.982421875 C82.2715916,0.998697998 82.9856957,1.12890503 83.6082575,1.37304688 C84.2308192,1.61718872 84.7719921,1.94474078 85.2317926,2.35571289 C85.6915931,2.766685 86.0761107,3.24885791 86.3853571,3.80224609 C86.6946034,4.35563428 86.9306036,4.95173834 87.0933649,5.59057617 C87.2561261,6.229414 87.3537814,6.89672504 87.3863336,7.5925293 C87.4188859,8.28833356 87.3944721,8.9820929 87.3130914,9.67382812 L87.1910211,10.5649414 Z M84.2979547,9.63720703 C84.3467831,9.23030396 84.3834038,8.79899316 84.407818,8.34326172 C84.4322322,7.88753027 84.4220598,7.43790912 84.3773004,6.99438477 C84.3325411,6.55086041 84.2491272,6.12361859 84.1270563,5.71264648 C84.0049854,5.30167438 83.8239162,4.93750159 83.5838434,4.62011719 C83.3437706,4.30273279 83.0385978,4.0463877 82.668316,3.85107422 C82.2980342,3.65576074 81.8443441,3.54996753 81.3072321,3.53369141 C80.7457058,3.51741528 80.2350501,3.59065674 79.7752496,3.75341797 C79.3154492,3.9161792 78.9004143,4.1440415 78.5301325,4.43701172 C78.1598507,4.72998193 77.8343331,5.07787885 77.55357,5.48071289 C77.2728068,5.88354694 77.0286686,6.31485773 76.8211481,6.7746582 C76.6136275,7.23445868 76.4427308,7.71052814 76.3084528,8.20288086 C76.1741748,8.69523358 76.074485,9.17740649 76.0093805,9.64941406 L75.8873102,10.5893555 C75.8384818,10.9881205 75.8038956,11.4153623 75.7835504,11.8710938 C75.7632053,12.3268252 75.7754122,12.7784808 75.8201715,13.2260742 C75.8649309,13.6736676 75.9503792,14.1029439 76.0765192,14.513916 C76.2026591,14.9248881 76.3857628,15.2910954 76.6258356,15.6125488 C76.8659084,15.9340023 77.1710811,16.1944163 77.5413629,16.3937988 C77.9116447,16.5931813 78.3612659,16.701009 78.8902399,16.7172852 C79.4599042,16.7335613 79.9746289,16.6603198 80.4344293,16.4975586 C80.8942298,16.3347974 81.3092647,16.1069351 81.6795465,15.8139648 C82.0498283,15.5209946 82.3753459,15.1710632 82.656109,14.7641602 C82.9368721,14.3572571 83.1769414,13.9239118 83.3763239,13.4641113 C83.5757064,13.0043109 83.7404996,12.5282414 83.8707086,12.0358887 C84.0009176,11.5435359 84.0985729,11.0572941 84.1636774,10.5771484 L84.2979547,9.63720703 Z" id="FlOW.IO" opacity="0.5"></path>
                </g>
            </g>
        </g>
    </g>
</svg>